<svg width="264" height="264" viewBox="0 0 264 264" fill="none" xmlns="http://www.w3.org/2000/svg">
<g filter="url(#filter0_d_308_254)">
<rect x="4" width="256" height="256" rx="50" fill="#D9D9D9"/>
<path d="M131.799 159.734C131.799 175.005 119.095 187.406 103.398 187.406C87.701 187.406 74.9978 175.005 74.9978 159.734C74.9978 144.463 87.701 132.061 103.398 132.061C119.095 132.061 131.799 144.463 131.799 159.734Z" fill="black" stroke="#7B7B7B"/>
<path d="M103.398 187.906C119.359 187.906 132.299 175.293 132.299 159.734C132.299 144.174 119.359 131.561 103.398 131.561C87.4369 131.561 74.4978 144.174 74.4978 159.734C74.4978 175.293 87.4369 187.906 103.398 187.906Z" stroke="#7B7B7B" stroke-width="16" stroke-linecap="round" stroke-linejoin="round"/>
<path d="M168.424 173.82L211.775 131.561" stroke="#7B7B7B" stroke-width="16" stroke-linecap="round" stroke-linejoin="round"/>
<path d="M161.199 131.561L182.874 110.432" stroke="#7B7B7B" stroke-width="16" stroke-linecap="round" stroke-linejoin="round"/>
<path d="M204.55 89.3021L219 75.2158" stroke="#7B7B7B" stroke-width="16" stroke-linecap="round" stroke-linejoin="round"/>
<path d="M132.299 103.388L197.325 40" stroke="#7B7B7B" stroke-width="16" stroke-linecap="round" stroke-linejoin="round"/>
<path d="M144.265 199.572C138.927 204.93 132.55 209.199 125.504 212.133C118.459 215.067 110.885 216.605 103.223 216.66C95.5619 216.715 87.9658 215.284 80.8767 212.451C73.7877 209.618 67.3471 205.439 61.9295 200.158C56.5119 194.877 52.2255 188.599 49.3194 181.688C46.4133 174.778 44.9456 167.373 45.0015 159.904C45.0575 152.436 46.6361 145.053 49.6455 138.184C52.6549 131.316 57.035 125.099 62.5312 119.896L137.257 47.0432" stroke="#7B7B7B" stroke-width="16" stroke-linecap="round" stroke-linejoin="round"/>
</g>
<defs>
<filter id="filter0_d_308_254" x="0" y="0" width="264" height="264" filterUnits="userSpaceOnUse" color-interpolation-filters="sRGB">
<feFlood flood-opacity="0" result="BackgroundImageFix"/>
<feColorMatrix in="SourceAlpha" type="matrix" values="0 0 0 0 0 0 0 0 0 0 0 0 0 0 0 0 0 0 127 0" result="hardAlpha"/>
<feOffset dy="4"/>
<feGaussianBlur stdDeviation="2"/>
<feComposite in2="hardAlpha" operator="out"/>
<feColorMatrix type="matrix" values="0 0 0 0 0 0 0 0 0 0 0 0 0 0 0 0 0 0 0.25 0"/>
<feBlend mode="normal" in2="BackgroundImageFix" result="effect1_dropShadow_308_254"/>
<feBlend mode="normal" in="SourceGraphic" in2="effect1_dropShadow_308_254" result="shape"/>
</filter>
</defs>
</svg>
