<?xml version="1.0" standalone="no"?>
<!DOCTYPE svg PUBLIC "-//W3C//DTD SVG 20010904//EN"
 "http://www.w3.org/TR/2001/REC-SVG-20010904/DTD/svg10.dtd">
<svg version="1.0" xmlns="http://www.w3.org/2000/svg"
 width="156.000000pt" height="156.000000pt" viewBox="0 0 156.000000 156.000000"
 preserveAspectRatio="xMidYMid meet">
<metadata>
Created by potrace 1.14, written by Peter Selinger 2001-2017
</metadata>
<g transform="translate(0.000000,156.000000) scale(0.100000,-0.100000)"
fill="#000000" stroke="none">
<path d="M90 1338 c-30 -15 -53 -37 -67 -63 -23 -40 -23 -43 -23 -490 0 -448
0 -451 23 -495 14 -30 36 -53 62 -67 39 -22 45 -23 423 -23 334 0 382 2 382
15 0 8 11 25 25 37 14 12 25 28 25 35 0 7 3 13 8 13 4 0 22 23 40 50 18 27 37
50 42 50 6 0 10 6 10 14 0 8 13 29 29 46 16 18 35 44 42 58 8 14 23 35 34 47
11 12 36 43 55 69 19 27 45 59 58 73 12 13 22 28 22 33 0 5 13 23 29 40 16 18
35 44 42 58 14 25 22 36 82 101 15 16 27 34 27 40 0 6 18 28 40 51 53 54 60
69 60 136 0 73 -27 130 -77 164 l-37 25 -655 3 -656 3 -45 -23z m265 -266
c135 -91 160 -111 160 -132 0 -21 -20 -39 -125 -108 -193 -128 -208 -136 -225
-122 -8 7 -15 23 -15 35 0 17 27 40 125 105 69 46 125 86 125 90 0 4 -56 44
-125 90 -100 66 -125 87 -125 106 0 19 23 44 40 43 3 0 77 -48 165 -107z m571
-307 c12 -16 12 -22 0 -39 -12 -20 -24 -21 -176 -24 -176 -3 -193 2 -188 47
l3 26 120 5 c201 8 225 7 241 -15z"/>
</g>
</svg>
