<svg width="1014" height="754" viewBox="0 0 1014 754" fill="none" xmlns="http://www.w3.org/2000/svg">
<rect width="1014" height="754" rx="106" fill="white"/>
<path fill-rule="evenodd" clip-rule="evenodd" d="M222.275 210.751C223.971 205.773 224.014 199.915 222.325 194.935C221.676 193.022 220.586 191.224 219.059 189.697L136.437 107.074C131.235 101.873 122.579 101.783 117.296 107.067C111.975 112.387 112.016 120.92 117.303 126.208L172.688 181.593C184.404 193.309 184.404 212.304 172.689 224.019L117.317 279.391C112.115 284.593 112.025 293.249 117.309 298.532C122.629 303.853 131.162 303.812 136.45 298.525L219.072 215.902C220.56 214.414 221.63 212.644 222.275 210.751ZM0 104.049C0 46.5843 46.5385 0 103.987 0H910.013C967.444 0 1014 46.5971 1014 104.049V649.951C1014 707.416 967.462 754 910.013 754H103.987C46.5564 754 0 707.403 0 649.951V104.049ZM242.29 289.905C242.29 283.61 247.39 278.508 253.67 278.508H379.072C385.357 278.508 390.452 283.566 390.452 289.905C390.452 296.199 385.352 301.302 379.072 301.302H253.67C247.385 301.302 242.29 296.243 242.29 289.905Z" fill="url(#paint0_linear_310_192)"/>
<defs>
<linearGradient id="paint0_linear_310_192" x1="45.5" y1="58.5" x2="916.5" y2="715" gradientUnits="userSpaceOnUse">
<stop stop-color="#00008B" stop-opacity="0.9"/>
<stop offset="1" stop-color="#007BFF" stop-opacity="0.6"/>
</linearGradient>
</defs>
</svg>
